<?xml version="1.0" standalone="no"?>
<!DOCTYPE svg PUBLIC "-//W3C//DTD SVG 20010904//EN"
 "http://www.w3.org/TR/2001/REC-SVG-20010904/DTD/svg10.dtd">
<svg version="1.0" xmlns="http://www.w3.org/2000/svg"
 width="500.000000pt" height="500.000000pt" viewBox="0 -50 500.000000 630.000000"
 preserveAspectRatio="xMidYMid meet">

<g transform="translate(0.000000,500.000000) scale(0.100000,-0.100000)"
fill="#14fff1" stroke="none">
<path d="M2340 4929 c-203 -11 -362 -40 -620 -115 -238 -69 -479 -192 -699
-357 -53 -40 -107 -79 -121 -88 -55 -35 -226 -209 -319 -323 -320 -396 -491
-790 -566 -1307 -19 -137 -20 -445 0 -602 37 -298 156 -667 295 -917 97 -175
362 -518 469 -606 36 -30 109 -91 161 -135 127 -106 254 -191 370 -245 52 -25
117 -56 143 -70 83 -43 258 -104 299 -104 65 0 105 23 117 67 13 46 15 509 2
517 -5 3 -33 1 -62 -6 -30 -6 -110 -10 -179 -9 -231 4 -362 42 -471 140 -54
48 -119 150 -119 186 0 10 -18 50 -41 89 -77 134 -127 194 -216 260 -76 57
-123 109 -123 136 0 17 83 32 139 26 129 -15 244 -106 372 -292 55 -81 81
-109 136 -147 123 -84 197 -103 343 -87 99 11 211 42 229 64 6 7 15 36 21 64
12 68 59 169 98 214 50 56 45 61 -54 73 -130 15 -435 100 -474 131 -8 7 -37
24 -65 39 -107 59 -236 178 -305 282 -83 126 -158 354 -181 552 -14 116 -5
376 15 446 46 162 97 270 170 360 41 50 55 76 51 90 -3 11 -12 45 -21 75 -21
76 -29 249 -15 339 6 41 24 110 39 155 l27 81 54 3 c29 2 76 -2 105 -8 81 -17
324 -131 462 -216 l71 -44 104 25 c163 39 315 56 514 56 226 1 373 -17 568
-67 l58 -15 97 59 c142 87 337 179 416 197 37 9 93 15 124 13 l56 -3 24 -75
c53 -169 65 -320 37 -455 -33 -153 -33 -154 45 -240 36 -40 116 -218 141 -314
26 -98 36 -319 20 -460 -21 -191 -96 -433 -165 -535 -178 -261 -455 -412 -857
-469 -45 -7 -84 -17 -86 -23 -2 -6 8 -24 23 -40 35 -40 92 -160 109 -231 11
-45 14 -157 15 -488 1 -465 0 -459 56 -496 57 -37 144 -17 361 85 66 31 122
56 126 56 12 0 202 113 257 153 271 198 441 370 646 657 211 294 364 703 420
1124 19 144 18 453 -1 571 -81 500 -227 875 -461 1185 -143 190 -328 392 -408
447 -22 16 -70 50 -106 77 -194 146 -461 293 -641 351 -371 120 -677 163
-1029 144z"/>
</g>
</svg>
