<?xml version="1.0" standalone="no"?>
<!DOCTYPE svg PUBLIC "-//W3C//DTD SVG 20010904//EN"
 "http://www.w3.org/TR/2001/REC-SVG-20010904/DTD/svg10.dtd">
<svg version="1.0" xmlns="http://www.w3.org/2000/svg"
 width="500.000000pt" height="500.000000pt" viewBox="0 0 500.000000 500.000000"
 preserveAspectRatio="xMidYMid meet">

<g transform="translate(0.000000,500.000000) scale(0.100000,-0.100000)"
fill="#14fff1" stroke="none">
<path d="M2280 4323 c-371 -57 -643 -171 -925 -387 -68 -52 -249 -234 -302
-304 -102 -135 -208 -316 -248 -422 -69 -184 -92 -264 -115 -407 -28 -164 -28
-443 0 -603 65 -384 235 -714 514 -995 209 -210 442 -355 716 -445 198 -65
294 -81 530 -87 167 -4 216 -2 332 16 76 11 159 28 185 36 26 8 73 23 103 32
215 65 462 206 644 369 326 290 535 674 600 1100 23 148 21 428 -3 571 -67
389 -239 722 -516 998 -281 282 -629 459 -1021 519 -93 15 -421 21 -494 9z
m555 -152 c172 -39 268 -72 402 -136 237 -115 432 -271 597 -479 102 -128 124
-164 200 -321 83 -172 120 -291 147 -475 62 -417 -30 -845 -256 -1190 -119
-181 -309 -373 -488 -490 -560 -370 -1292 -374 -1857 -12 -193 124 -387 318
-515 517 -48 74 -155 282 -155 301 0 5 -9 31 -19 59 -63 164 -86 315 -86 565
0 261 18 362 100 590 18 49 103 226 132 275 135 223 370 459 588 587 184 108
372 179 585 219 136 26 495 20 625 -10z"/>
<path d="M1830 3324 c-85 -30 -131 -75 -151 -147 -8 -31 -7 -50 7 -93 48 -154
249 -181 335 -44 73 116 0 262 -142 284 -19 3 -41 3 -49 0z"/>
<path d="M1672 2223 l3 -548 188 -3 187 -2 0 550 0 550 -190 0 -190 0 2 -547z"/>
<path d="M2280 2220 l0 -550 155 0 c141 0 155 2 155 18 -1 293 9 626 20 670
20 77 65 125 134 142 126 30 223 -28 246 -149 5 -30 10 -195 10 -367 l0 -314
166 0 166 0 -5 378 c-6 398 -12 465 -57 553 -32 61 -92 114 -162 140 -55 21
-80 24 -193 24 -120 -1 -134 -3 -188 -28 -32 -15 -78 -48 -102 -73 l-45 -46 0
76 0 76 -150 0 -150 0 0 -550z"/>
</g>
</svg>
