<?xml version="1.0" standalone="no"?>
<!DOCTYPE svg PUBLIC "-//W3C//DTD SVG 20010904//EN"
 "http://www.w3.org/TR/2001/REC-SVG-20010904/DTD/svg10.dtd">
<svg version="1.0" xmlns="http://www.w3.org/2000/svg"
 width="267.000000pt" height="189.000000pt" viewBox="0 0 267.000000 189.000000"
 preserveAspectRatio="xMidYMid meet">

<g transform="translate(0.000000,189.000000) scale(0.100000,-0.100000)"
fill="#14fff1" stroke="none">
<path d="M1161 1720 c-40 -9 -117 -39 -170 -65 -82 -41 -110 -62 -191 -144
-81 -81 -103 -111 -143 -191 -67 -135 -82 -199 -81 -355 0 -146 13 -210 70
-335 l35 -76 -69 -202 c-62 -184 -67 -202 -48 -196 12 3 106 33 211 66 173 55
192 60 220 48 133 -56 202 -73 320 -77 174 -7 299 24 442 108 82 48 212 180
262 266 232 393 82 898 -324 1093 -55 27 -132 56 -172 64 -97 22 -267 20 -362
-4z m397 -133 c103 -36 174 -81 257 -163 79 -79 142 -186 171 -294 27 -102 23
-254 -9 -355 -60 -183 -178 -318 -352 -401 -178 -85 -375 -84 -560 4 l-80 38
-119 -38 c-66 -20 -122 -36 -124 -33 -2 2 14 58 36 124 23 69 36 123 31 127
-17 10 -77 140 -95 205 -23 85 -24 244 -1 326 64 237 257 426 489 478 97 22
264 14 356 -18z"/>
<path d="M1017 1301 c-85 -94 -75 -209 34 -370 111 -166 215 -253 379 -317
106 -41 156 -43 227 -10 60 28 84 59 90 119 l5 43 -96 49 -97 50 -47 -53 c-26
-29 -53 -52 -61 -52 -34 0 -136 68 -194 129 -73 78 -106 134 -92 156 6 8 23
32 38 53 l28 39 -31 82 c-45 123 -43 121 -99 121 -44 0 -52 -4 -84 -39z"/>
</g>
</svg>
